# xmcd
#
# Track frame offsets:
#	150
#	14880
#	24608
#	37343
#	48998
#	61591
#	75736
#	88216
#	102601
#	116911
#
# Disc length: 1755 seconds
#
# Revision: 1
# Processed by: cddbd v1.5.2PL0 Copyright (c) Steve Scherf et al.
# Submitted via: audiograbber 1.83.01
#
DISCID=8c06d90a
DTITLE=George Strait - Something Special
DYEAR=1985
DGENRE=Country
TTITLE0=You're Something Special To Me
TTITLE1=Last Time The First Time
TTITLE2=Haven't You Heard
TTITLE3=In Too Deep
TTITLE4=Blue Is Not A Word
TTITLE5=You Sure Got This Ol' Redneck Feelin' Blue
TTITLE6=The Chair
TTITLE7=Dance Time In Texas
TTITLE8=Lefty's Gone
TTITLE9=I've Seen That Look On Me (A Thousand Times)
EXTD=
EXTT0=
EXTT1=
EXTT2=
EXTT3=
EXTT4=
EXTT5=
EXTT6=
EXTT7=
EXTT8=
EXTT9=
PLAYORDER=
